# xmcd
#
# Track frame offsets:
# 183
# 11900
# 23208
# 59530
# 78148
# 110530
# 148948
# 171195
# 208780
# 260425
#
# Disc length: 3602 seconds
#
#
# Revision: 2
# Processed by: cddbd v1.5.1PL2 Copyright (c) Steve Scherf et al.
# Submitted via: FreeRIP 2.70 
#
DISCID=8d0e100a
DTITLE=Santana - Acapulco Sunrise
DYEAR=1900
DGENRE=
TTITLE0=Acapulco Sunrise
TTITLE1=Coconut Grove
TTITLE2=Hot Tamales
TTITLE3=With A Little Help From My Friends
TTITLE4=Every Day I Have The Blues
TTITLE5=Jam In E
TTITLE6=Travellin' Blues
TTITLE7=Jammin' Home
TTITLE8=Latin Tropical
TTITLE9=Let's Get Ourselves Together
EXTD=
EXTT0=
EXTT1=
EXTT2=
EXTT3=
EXTT4=
EXTT5=
EXTT6=
EXTT7=
EXTT8=
EXTT9=
PLAYORDER=
